<svg xmlns="http://www.w3.org/2000/svg" aria-hidden="true" style="position:absolute;width:0;height:0;overflow:hidden"><defs><symbol id="icon-nav-phone" viewBox="0 0 32 32"><path  d="m31 21.722-8.783-1.016-4.2 4.197A25.066 25.066 0 0 1 7.034 13.926l4.217-4.214L10.234.967H1.051c-.967 16.956 12.983 30.898 29.95 29.932v-9.178z" style="fill:var(--color1, currentColor)"/></symbol><symbol id="icon-facebook" viewBox="0 0 32 32"><path d="M16 3c-2.571 0-5.085.762-7.222 2.191S4.974 8.65 3.99 11.025a13.004 13.004 0 0 0 2.818 14.167 13.002 13.002 0 0 0 20.001-1.97A13.003 13.003 0 0 0 29 16 13.018 13.018 0 0 0 16 3zm1 23.954V19h3a.997.997 0 0 0 1-1 .997.997 0 0 0-1-1h-3v-3a2 2 0 0 1 2-2h2a.997.997 0 0 0 1-1 .997.997 0 0 0-1-1h-2a4.003 4.003 0 0 0-4 4v3h-3a.997.997 0 0 0-1 1 .997.997 0 0 0 1 1h3v7.954a11.003 11.003 0 0 1-9.989-11.455 10.996 10.996 0 0 1 18.587-7.453 11.001 11.001 0 0 1-6.599 18.908z"/></symbol><symbol id="icon-instagram" viewBox="0 0 32 32"><path d="M16 10a5.998 5.998 0 0 0-4.242 10.243 5.996 5.996 0 0 0 6.539 1.301 5.999 5.999 0 0 0-2.296-11.543zm0 10a4.004 4.004 0 0 1-3.695-2.469 3.992 3.992 0 0 1 .867-4.359A4 4 0 1 1 16 20zm6-17H10a7.005 7.005 0 0 0-7 7v12a7.006 7.006 0 0 0 7 7h12c1.856-.002 3.635-.74 4.947-2.053S28.997 23.855 29 22V10a7.007 7.007 0 0 0-7-7zm5 19a4.997 4.997 0 0 1-5 5H10a4.997 4.997 0 0 1-5-5V10a4.997 4.997 0 0 1 5-5h12a4.997 4.997 0 0 1 5 5v12zM24 9.5a1.495 1.495 0 0 1-.926 1.385 1.496 1.496 0 0 1-1.635-.326c-.21-.21-.353-.477-.41-.768s-.028-.593.085-.867a1.498 1.498 0 0 1 2.885.574z"/></symbol><symbol id="icon-linkedin" viewBox="0 0 32 32"><path d="M13.377 20.4h-2.133v-6.932h2.133V20.4zm-1.066-7.821c-.769 0-1.155-.356-1.155-1.067a.988.988 0 0 1 .334-.756 1.16 1.16 0 0 1 .821-.311c.769 0 1.155.357 1.155 1.068s-.384 1.065-1.155 1.065zm8.978 7.821h-2.177v-3.867c0-1.007-.357-1.511-1.068-1.511-.563 0-.932.281-1.112.844-.057.089-.088.268-.088.533v4h-2.177v-4.711c0-1.067-.016-1.807-.044-2.221h1.867l.133.932c.489-.741 1.2-1.111 2.177-1.111.743 0 1.341.259 1.8.777.461.519.691 1.267.691 2.245v4.088h-.001zM16 28C9.383 28 4 22.617 4 16S9.383 4 16 4s12 5.383 12 12-5.383 12-12 12zm0-21.333c-5.145 0-9.333 4.188-9.333 9.333s4.188 9.333 9.333 9.333c5.145 0 9.333-4.188 9.333-9.333S21.145 6.667 16 6.667z"/></symbol><symbol id="icon-youtube" viewBox="0 0 22 22" fill="none"><path d="M18.0714 3.14307H3.9285C2.19275 3.14307 0.785645 4.55017 0.785645 6.28592V15.7145C0.785645 17.4502 2.19275 18.8574 3.9285 18.8574H18.0714C19.8071 18.8574 21.2142 17.4502 21.2142 15.7145V6.28592C21.2142 4.55017 19.8071 3.14307 18.0714 3.14307Z" stroke="black" stroke-linecap="round" stroke-linejoin="round"/><path d="M8.34426 14.6459V8.04593C8.34098 7.9345 8.36815 7.82429 8.42286 7.72716C8.47756 7.63003 8.55772 7.54966 8.65471 7.4947C8.75169 7.43974 8.86183 7.41227 8.97327 7.41526C9.0847 7.41824 9.19321 7.45157 9.28712 7.51164L14.9443 10.8116C15.0388 10.8671 15.1172 10.9463 15.1716 11.0414C15.2261 11.1365 15.2547 11.2442 15.2547 11.3538C15.2547 11.4634 15.2261 11.5711 15.1716 11.6662C15.1172 11.7613 15.0388 11.8405 14.9443 11.8959L9.28712 15.1959C9.19115 15.2513 9.08223 15.2804 8.97141 15.2802C8.86059 15.2799 8.75181 15.2504 8.65609 15.1945C8.56036 15.1387 8.4811 15.0585 8.42634 14.9622C8.37158 14.8659 8.34326 14.7567 8.34426 14.6459Z" stroke="black" stroke-linecap="round" stroke-linejoin="round"/></symbol><symbol id="icon-burger-btn" viewBox="0 0 30 25" fill="none"><g fill="currentColor"><path d="M0 0h30v1H0zM0 6h30v1H0zM0 12h30v1H0zM0 18h30v1H0zM0 24h30v1H0z"/></g></defs></svg>