<svg xmlns="http://www.w3.org/2000/svg" aria-hidden="true" style="position:absolute;width:0;height:0;overflow:hidden"><defs><symbol id="icon-facebook" viewBox="0 0 32 32"><path d="M16 3c-2.571 0-5.085.762-7.222 2.191S4.974 8.65 3.99 11.025a13.004 13.004 0 0 0 2.818 14.167 13.002 13.002 0 0 0 20.001-1.97A13.003 13.003 0 0 0 29 16 13.018 13.018 0 0 0 16 3zm1 23.954V19h3a.997.997 0 0 0 1-1 .997.997 0 0 0-1-1h-3v-3a2 2 0 0 1 2-2h2a.997.997 0 0 0 1-1 .997.997 0 0 0-1-1h-2a4.003 4.003 0 0 0-4 4v3h-3a.997.997 0 0 0-1 1 .997.997 0 0 0 1 1h3v7.954a11.003 11.003 0 0 1-9.989-11.455 10.996 10.996 0 0 1 18.587-7.453 11.001 11.001 0 0 1-6.599 18.908z"/></symbol><symbol id="icon-instagram" viewBox="0 0 32 32"><path d="M16 10a5.998 5.998 0 0 0-4.242 10.243 5.996 5.996 0 0 0 6.539 1.301 5.999 5.999 0 0 0-2.296-11.543zm0 10a4.004 4.004 0 0 1-3.695-2.469 3.992 3.992 0 0 1 .867-4.359A4 4 0 1 1 16 20zm6-17H10a7.005 7.005 0 0 0-7 7v12a7.006 7.006 0 0 0 7 7h12c1.856-.002 3.635-.74 4.947-2.053S28.997 23.855 29 22V10a7.007 7.007 0 0 0-7-7zm5 19a4.997 4.997 0 0 1-5 5H10a4.997 4.997 0 0 1-5-5V10a4.997 4.997 0 0 1 5-5h12a4.997 4.997 0 0 1 5 5v12zM24 9.5a1.495 1.495 0 0 1-.926 1.385 1.496 1.496 0 0 1-1.635-.326c-.21-.21-.353-.477-.41-.768s-.028-.593.085-.867a1.498 1.498 0 0 1 2.885.574z"/></symbol><symbol id="icon-linkedin" viewBox="0 0 32 32"><path d="M13.377 20.4h-2.133v-6.932h2.133V20.4zm-1.066-7.821c-.769 0-1.155-.356-1.155-1.067a.988.988 0 0 1 .334-.756 1.16 1.16 0 0 1 .821-.311c.769 0 1.155.357 1.155 1.068s-.384 1.065-1.155 1.065zm8.978 7.821h-2.177v-3.867c0-1.007-.357-1.511-1.068-1.511-.563 0-.932.281-1.112.844-.057.089-.088.268-.088.533v4h-2.177v-4.711c0-1.067-.016-1.807-.044-2.221h1.867l.133.932c.489-.741 1.2-1.111 2.177-1.111.743 0 1.341.259 1.8.777.461.519.691 1.267.691 2.245v4.088h-.001zM16 28C9.383 28 4 22.617 4 16S9.383 4 16 4s12 5.383 12 12-5.383 12-12 12zm0-21.333c-5.145 0-9.333 4.188-9.333 9.333s4.188 9.333 9.333 9.333c5.145 0 9.333-4.188 9.333-9.333S21.145 6.667 16 6.667z"/></symbol><symbol id="icon-youtube" viewBox="0 0 32 32"><path stroke-linecap="round" stroke-linejoin="round" stroke-width="1.454" d="M26.286 4.572H5.714a4.571 4.571 0 0 0-4.571 4.571v13.714a4.572 4.572 0 0 0 4.571 4.572h20.572a4.571 4.571 0 0 0 4.571-4.572V9.143a4.571 4.571 0 0 0-4.571-4.571z"/><path stroke-linecap="round" stroke-linejoin="round" stroke-width="1.454" d="M12.137 21.303v-9.6a.897.897 0 0 1 .451-.802.893.893 0 0 1 .92.024l8.229 4.8a.922.922 0 0 1 .452.788.916.916 0 0 1-.452.788l-8.229 4.8a.915.915 0 0 1-1.371-.8z"/></symbol></defs></svg>